<?xml version="1.0" encoding="UTF-8"?>
<svg xmlns="http://www.w3.org/2000/svg" xmlns:xlink="http://www.w3.org/1999/xlink" width="520.12pt" height="118.2pt" viewBox="0 0 520.12 118.2" version="1.1">
<defs>
<clipPath id="clip1">
  <path d="M 443 8 L 520.121094 8 L 520.121094 89 L 443 89 Z M 443 8 "/>
</clipPath>
<clipPath id="clip2">
  <path d="M 102 40 L 154 40 L 154 118.199219 L 102 118.199219 Z M 102 40 "/>
</clipPath>
</defs>
<g id="surface1">
<path style=" stroke:none;fill-rule:nonzero;fill:rgb(6.298828%,41.999817%,69.398499%);fill-opacity:1;" d="M 9.808594 27.925781 L 10.226563 26.566406 C 9.992188 26.566406 12.066406 23.378906 11.835938 23.378906 C -3.351563 38.078125 -2.035156 57.753906 5.265625 71.902344 C 10.359375 81.769531 19.683594 91.003906 30.769531 95.984375 C 35.902344 98.285156 43.765625 100.402344 52.019531 100.234375 C 69.671875 99.867188 82.046875 91.523438 89.03125 77.921875 L 89.441406 76.859375 C 83.277344 83.070313 73.234375 87.386719 65.355469 88.191406 C 32.582031 91.550781 -1.136719 62.1875 9.808594 27.925781 "/>
<path style=" stroke:none;fill-rule:nonzero;fill:rgb(6.298828%,41.999817%,69.398499%);fill-opacity:1;" d="M 53.316406 32.941406 C 57.644531 39.90625 65.910156 46.023438 78.816406 43.277344 C 82.074219 42.582031 89.457031 37.027344 90.738281 34.089844 C 79.671875 41.617188 72.808594 39.097656 69.558594 38.140625 C 68.839844 37.933594 67.183594 37.191406 65.640625 36.261719 C 62.210938 34.203125 60.519531 33.257813 57.847656 29.378906 C 56.382813 27.246094 54.914063 23.859375 54.433594 21.917969 C 53.640625 18.710938 53.859375 13.773438 55.371094 9.523438 C 50.359375 13.992188 49.589844 22.628906 51.269531 28.335938 C 51.480469 29.058594 52.671875 31.902344 53.316406 32.941406 "/>
<path style=" stroke:none;fill-rule:nonzero;fill:rgb(6.298828%,41.999817%,69.398499%);fill-opacity:1;" d="M 56.855469 69.773438 C 74.183594 72.09375 87.105469 64.808594 91.566406 53.484375 C 86.464844 58.894531 77.851563 62.75 69.605469 62.691406 C 51.167969 62.570313 30.449219 46.050781 32.773438 23.023438 C 32.972656 21.039063 33.765625 17.929688 35.890625 13.898438 C 29.777344 21.609375 26.066406 27.960938 27.105469 38.609375 C 28.527344 53.234375 42.351563 67.835938 56.855469 69.773438 "/>
<g clip-path="url(#clip1)" clip-rule="nonzero">
<path style=" stroke:none;fill-rule:nonzero;fill:#464146;fill-opacity:1;" d="M 498.28125 8.734375 L 466.992188 52.066406 L 464.160156 40.734375 L 443.617188 40.734375 C 443.617188 40.734375 445.65625 51.046875 447.160156 56.316406 C 448.648438 61.523438 451.296875 66.707031 451.410156 71.902344 C 451.539063 77.84375 448.429688 89 448.429688 89 L 468.410156 88.902344 C 468.410156 88.902344 470.5625 78.199219 472.660156 73.316406 C 473.488281 71.375 475.128906 69.8125 476.203125 68.359375 C 479.515625 63.875 520.121094 8.855469 520.121094 8.855469 "/>
</g>
<path style=" stroke:none;fill-rule:nonzero;fill:#464146;fill-opacity:1;" d="M 456.929688 20.339844 C 452.535156 17.695313 442.097656 18.839844 433.164063 18.839844 L 419.328125 18.839844 C 410.664063 18.839844 405.535156 18.265625 404.660156 21.605469 C 401.953125 31.933594 390.492188 88.902344 390.492188 88.902344 L 408.910156 88.902344 L 420.949219 36.484375 L 430.867188 36.484375 C 442.34375 36.484375 463.433594 36.171875 463.433594 36.171875 C 463.433594 36.171875 460.960938 22.769531 456.929688 20.339844 "/>
<path style=" stroke:none;fill-rule:nonzero;fill:#464146;fill-opacity:1;" d="M 371.1875 45.867188 L 343.738281 45.691406 C 343.738281 45.691406 343.429688 33.832031 359.429688 34.335938 C 365.097656 34.515625 367.089844 35.285156 369.242188 38.605469 C 371.761719 42.503906 371.1875 45.867188 371.1875 45.867188 M 386.417969 25.914063 C 382.558594 20.53125 374.652344 18.660156 369.417969 18.121094 C 355.511719 16.699219 343.9375 20.417969 337.542969 25.207031 C 335.609375 26.652344 334 27.8125 332.585938 29.457031 C 332.074219 30.050781 331.519531 30.714844 331.046875 31.402344 C 330.636719 31.984375 330.144531 32.382813 329.75 32.996094 C 329.164063 33.890625 328.539063 35.578125 327.800781 37.070313 C 327.214844 38.269531 326.652344 39.675781 326.210938 40.789063 C 322.371094 50.378906 318.453125 68.28125 321.960938 77.625 C 322.476563 79.003906 323.628906 80.753906 324.027344 81.285156 C 324.523438 81.953125 324.976563 82.722656 325.5 83.289063 C 327.421875 85.359375 330.261719 86.820313 333.292969 87.539063 C 348.644531 91.203125 379.335938 89.664063 379.335938 89.664063 L 383.097656 73.003906 C 383.097656 73.003906 361.378906 73.984375 351.003906 72.664063 C 349.449219 72.46875 345.128906 72.246094 342.914063 70.304688 C 340.984375 68.621094 338.710938 64.632813 340.378906 62.039063 C 341.558594 60.191406 346.316406 60.742188 350.292969 60.625 C 363.078125 60.234375 386.417969 60.625 386.417969 60.625 C 386.417969 60.625 390.886719 40.746094 388.542969 32.289063 C 387.964844 30.207031 387.453125 27.351563 386.417969 25.914063 "/>
<path style=" stroke:none;fill-rule:nonzero;fill:#464146;fill-opacity:1;" d="M 304.070313 18.773438 L 291.320313 71.902344 C 291.320313 71.902344 284.265625 71.949219 282.113281 71.902344 C 275.3125 71.746094 273.082031 71.519531 271.488281 68.359375 C 269.808594 65.035156 271.417969 60.808594 272.195313 56.316406 C 274.371094 43.777344 279.597656 18.667969 279.597656 18.667969 L 261.097656 18.839844 C 261.097656 18.839844 257.574219 34.96875 255.90625 42.859375 C 253.539063 54.007813 248.503906 70.417969 253.78125 80.402344 C 259.21875 90.679688 272.007813 88.902344 286.363281 88.902344 L 306.90625 88.902344 C 311.976563 65.878906 321.929688 18.667969 321.929688 18.667969 "/>
<path style=" stroke:none;fill-rule:nonzero;fill:#464146;fill-opacity:1;" d="M 220.488281 52.773438 C 218.703125 59.101563 216.945313 65.496094 214.820313 71.191406 C 200.503906 71.109375 187.207031 73.0625 182.945313 64.109375 C 180.535156 59.042969 181.617188 52.1875 182.945313 45.691406 C 184.722656 36.941406 186.421875 30.589844 191.445313 25.148438 C 195.324219 20.949219 205.09375 15.800781 215.527344 19.484375 C 218.992188 20.707031 224.363281 26.539063 224.738281 32.941406 C 225.085938 38.925781 222.355469 46.132813 220.488281 52.773438 M 245.277344 26.566406 C 244.1875 18.648438 239.023438 10.039063 233.359375 6.433594 C 233.125 6.292969 232.109375 5.484375 231.820313 5.316406 C 227.628906 2.886719 220.910156 0.839844 216.238281 0.355469 C 192.132813 -2.113281 177.753906 8.59375 169.484375 23.023438 C 166.234375 28.691406 164.082031 34.882813 162.402344 41.441406 C 160.546875 48.707031 159.214844 57.519531 160.277344 65.523438 C 160.914063 70.320313 163.550781 77.136719 167.359375 81.109375 C 176.746094 90.890625 195.148438 89.609375 214.820313 89.609375 C 220.847656 89.609375 235.304688 89.488281 239.667969 89.375 C 241.078125 89.332031 245.125 72.871094 244.761719 72.339844 C 244.414063 71.929688 239.597656 72.503906 234.101563 72.007813 C 239.492188 57.769531 247.320313 41.398438 245.277344 26.566406 "/>
<path style=" stroke:none;fill-rule:nonzero;fill:#464146;fill-opacity:1;" d="M 134.773438 35.773438 L 154.609375 35.773438 C 155.863281 30.417969 157.054688 24.277344 158.242188 18.859375 C 151.273438 18.859375 145.371094 18.773438 139.023438 18.773438 C 137.488281 23.9375 136.3125 29.839844 134.773438 35.773438 "/>
<g clip-path="url(#clip2)" clip-rule="nonzero">
<path style=" stroke:none;fill-rule:nonzero;fill:#464146;fill-opacity:1;" d="M 126.273438 73.316406 C 123.351563 87.074219 122.96875 101.351563 107.859375 99.527344 C 106.414063 104.839844 104.578125 111.957031 102.957031 117.886719 C 109.152344 118.015625 114.855469 118.488281 119.898438 117.945313 C 123.003906 117.601563 128.605469 116.265625 129.816406 115.109375 C 130.304688 114.644531 130.644531 114.863281 131.234375 114.402344 C 137.808594 109.265625 139.429688 102.167969 141.859375 92.441406 C 145.742188 76.902344 150.691406 54.574219 153.191406 40.734375 L 134.066406 40.734375 C 133.097656 43.921875 127.96875 65.371094 126.273438 73.316406 "/>
</g>
</g>
</svg>
